<mxfile host="Electron" agent="Mozilla/5.0 (Windows NT 10.0; Win64; x64) AppleWebKit/537.36 (KHTML, like Gecko) draw.io/26.0.16 Chrome/132.0.6834.196 Electron/34.2.0 Safari/537.36" version="26.0.16">
  <diagram name="Page-1" id="zGj85CW7K_Q15-CYQ7l3">
    <mxGraphModel dx="2836" dy="1347" grid="1" gridSize="10" guides="1" tooltips="1" connect="1" arrows="1" fold="1" page="1" pageScale="1" pageWidth="850" pageHeight="1100" math="0" shadow="0">
      <root>
        <mxCell id="0" />
        <mxCell id="1" parent="0" />
        <mxCell id="5BVnTUnEMfs_GL1pfW84-42" value="" style="ellipse;whiteSpace=wrap;html=1;aspect=fixed;fillColor=none;strokeColor=#CC0000;dashed=1;dashPattern=8 8;" vertex="1" parent="1">
          <mxGeometry x="166.47" y="380" width="520" height="520" as="geometry" />
        </mxCell>
        <mxCell id="5BVnTUnEMfs_GL1pfW84-44" value="&lt;b&gt;&lt;font style=&quot;font-size: 28px; color: rgb(204, 0, 0);&quot;&gt;API&amp;nbsp;&lt;/font&gt;&lt;/b&gt;" style="strokeWidth=3;shadow=0;dashed=0;align=center;html=1;shape=mxgraph.mockup.text.callout;linkText=;textSize=17;textColor=#666666;callDir=NW;callStyle=line;fontSize=17;fontColor=#666666;align=left;verticalAlign=top;strokeColor=none;gradientColor=default;perimeterSpacing=0;spacingTop=-9;" vertex="1" parent="1">
          <mxGeometry x="150" y="440" width="80" height="50" as="geometry" />
        </mxCell>
        <mxCell id="5BVnTUnEMfs_GL1pfW84-2" style="edgeStyle=orthogonalEdgeStyle;rounded=1;orthogonalLoop=1;jettySize=auto;html=1;fillColor=light-dark(#CF0C02,#512D2B);strokeColor=light-dark(#FF0000,#D7817E);gradientColor=none;strokeWidth=3;flowAnimation=0;fillStyle=solid;" edge="1" parent="1" source="5BVnTUnEMfs_GL1pfW84-1" target="5BVnTUnEMfs_GL1pfW84-3">
          <mxGeometry relative="1" as="geometry">
            <mxPoint x="424.75" y="350" as="targetPoint" />
          </mxGeometry>
        </mxCell>
        <mxCell id="5BVnTUnEMfs_GL1pfW84-1" value="" style="verticalLabelPosition=bottom;html=1;verticalAlign=top;align=center;strokeColor=none;fillColor=#00BEF2;shape=image;pointerEvents=1;labelBackgroundColor=default;image=img/lib/clip_art/telecommunication/Palm_Treo_128x128.png;" vertex="1" parent="1">
          <mxGeometry x="389.5" y="70" width="91" height="140" as="geometry" />
        </mxCell>
        <mxCell id="5BVnTUnEMfs_GL1pfW84-5" style="edgeStyle=orthogonalEdgeStyle;rounded=1;orthogonalLoop=1;jettySize=auto;html=1;strokeColor=#FF0000;fillColor=#FF3333;strokeWidth=3;" edge="1" parent="1" source="5BVnTUnEMfs_GL1pfW84-3" target="5BVnTUnEMfs_GL1pfW84-6">
          <mxGeometry relative="1" as="geometry">
            <mxPoint x="260" y="680" as="targetPoint" />
          </mxGeometry>
        </mxCell>
        <mxCell id="5BVnTUnEMfs_GL1pfW84-3" value="" style="image;aspect=fixed;perimeter=ellipsePerimeter;html=1;align=center;shadow=0;dashed=0;spacingTop=3;image=img/lib/active_directory/shadowed_router.svg;" vertex="1" parent="1">
          <mxGeometry x="348.9" y="380" width="139.4" height="170" as="geometry" />
        </mxCell>
        <mxCell id="5BVnTUnEMfs_GL1pfW84-6" value="" style="image;aspect=fixed;html=1;points=[];align=center;fontSize=12;image=img/lib/azure2/other/Modular_Data_Center.svg;" vertex="1" parent="1">
          <mxGeometry x="190" y="620" width="150" height="150" as="geometry" />
        </mxCell>
        <mxCell id="5BVnTUnEMfs_GL1pfW84-8" value="" style="html=1;verticalLabelPosition=bottom;align=center;labelBackgroundColor=#ffffff;verticalAlign=top;strokeWidth=2;strokeColor=#0080F0;shadow=0;dashed=0;shape=mxgraph.ios7.icons.controls;" vertex="1" parent="1">
          <mxGeometry x="530" y="630" width="160" height="150" as="geometry" />
        </mxCell>
        <mxCell id="5BVnTUnEMfs_GL1pfW84-10" value="" style="image;html=1;image=img/lib/clip_art/computers/Database_128x128.png" vertex="1" parent="1">
          <mxGeometry x="190" y="870" width="140" height="180" as="geometry" />
        </mxCell>
        <mxCell id="5BVnTUnEMfs_GL1pfW84-16" value="" style="edgeStyle=segmentEdgeStyle;endArrow=classic;html=1;curved=0;rounded=1;endSize=8;startSize=8;entryX=1;entryY=0.5;entryDx=0;entryDy=0;strokeWidth=3;strokeColor=#FF3333;" edge="1" parent="1" target="5BVnTUnEMfs_GL1pfW84-10">
          <mxGeometry width="50" height="50" relative="1" as="geometry">
            <mxPoint x="560" y="770" as="sourcePoint" />
            <mxPoint x="640" y="960.0000000000002" as="targetPoint" />
            <Array as="points">
              <mxPoint x="560" y="960" />
              <mxPoint x="480" y="960" />
            </Array>
          </mxGeometry>
        </mxCell>
        <mxCell id="5BVnTUnEMfs_GL1pfW84-18" style="edgeStyle=orthogonalEdgeStyle;rounded=1;orthogonalLoop=1;jettySize=auto;html=1;entryX=0.329;entryY=0.59;entryDx=0;entryDy=0;entryPerimeter=0;curved=0;strokeWidth=3;strokeColor=#FF3333;" edge="1" parent="1" source="5BVnTUnEMfs_GL1pfW84-20" target="5BVnTUnEMfs_GL1pfW84-8">
          <mxGeometry relative="1" as="geometry" />
        </mxCell>
        <mxCell id="5BVnTUnEMfs_GL1pfW84-19" value="" style="edgeStyle=orthogonalEdgeStyle;rounded=1;orthogonalLoop=1;jettySize=auto;html=1;entryX=0.329;entryY=0.59;entryDx=0;entryDy=0;entryPerimeter=0;strokeColor=light-dark(#FF3333,#512D2B);curved=0;strokeWidth=3;" edge="1" parent="1" source="5BVnTUnEMfs_GL1pfW84-6" target="5BVnTUnEMfs_GL1pfW84-20">
          <mxGeometry relative="1" as="geometry">
            <mxPoint x="340" y="690" as="sourcePoint" />
            <mxPoint x="583" y="719" as="targetPoint" />
          </mxGeometry>
        </mxCell>
        <mxCell id="5BVnTUnEMfs_GL1pfW84-20" value="" style="sketch=0;aspect=fixed;pointerEvents=1;shadow=0;dashed=0;html=1;strokeColor=none;labelPosition=center;verticalLabelPosition=bottom;verticalAlign=top;align=center;fillColor=#66B2FF;shape=mxgraph.mscae.enterprise.connectors" vertex="1" parent="1">
          <mxGeometry x="380" y="660" width="102.94" height="70" as="geometry" />
        </mxCell>
        <mxCell id="5BVnTUnEMfs_GL1pfW84-22" value="" style="edgeStyle=elbowEdgeStyle;elbow=horizontal;endArrow=classic;html=1;curved=0;rounded=1;endSize=8;startSize=8;entryX=1;entryY=0.5;entryDx=0;entryDy=0;strokeWidth=3;strokeColor=#00CC00;dashed=1;" edge="1" parent="1" target="5BVnTUnEMfs_GL1pfW84-3">
          <mxGeometry width="50" height="50" relative="1" as="geometry">
            <mxPoint x="320" y="1010" as="sourcePoint" />
            <mxPoint x="800" y="1000" as="targetPoint" />
            <Array as="points">
              <mxPoint x="750" y="990" />
            </Array>
          </mxGeometry>
        </mxCell>
        <mxCell id="5BVnTUnEMfs_GL1pfW84-23" value="" style="edgeStyle=elbowEdgeStyle;elbow=horizontal;endArrow=classic;html=1;curved=0;rounded=1;endSize=8;startSize=8;entryX=1;entryY=0.5;entryDx=0;entryDy=0;dashed=1;strokeWidth=3;strokeColor=#00CC00;" edge="1" parent="1" target="5BVnTUnEMfs_GL1pfW84-1">
          <mxGeometry width="50" height="50" relative="1" as="geometry">
            <mxPoint x="500" y="450" as="sourcePoint" />
            <mxPoint x="550" y="400" as="targetPoint" />
            <Array as="points">
              <mxPoint x="630" y="320" />
            </Array>
          </mxGeometry>
        </mxCell>
        <mxCell id="5BVnTUnEMfs_GL1pfW84-25" value="&lt;h1 style=&quot;margin-top: 0px;&quot;&gt;&lt;span style=&quot;background-color: transparent; color: light-dark(rgb(0, 0, 0), rgb(255, 255, 255));&quot;&gt;Vendor/user REQUEST&amp;nbsp;&amp;nbsp;&lt;/span&gt;&lt;/h1&gt;" style="text;html=1;whiteSpace=wrap;overflow=hidden;rounded=0;" vertex="1" parent="1">
          <mxGeometry x="150" y="220" width="320" height="60" as="geometry" />
        </mxCell>
        <mxCell id="5BVnTUnEMfs_GL1pfW84-26" value="&lt;h1 style=&quot;margin-top: 0px;&quot;&gt;&lt;span style=&quot;background-color: transparent; color: light-dark(rgb(0, 0, 0), rgb(255, 255, 255));&quot;&gt;REQUEST routs to middlewares&amp;nbsp; &amp;nbsp;&lt;/span&gt;&lt;/h1&gt;" style="text;html=1;whiteSpace=wrap;overflow=hidden;rounded=0;fontSize=11;" vertex="1" parent="1">
          <mxGeometry x="60" y="530" width="270" height="80" as="geometry" />
        </mxCell>
        <mxCell id="5BVnTUnEMfs_GL1pfW84-27" value="Routers" style="text;html=1;align=center;verticalAlign=middle;whiteSpace=wrap;rounded=0;fontColor=#990000;fontSize=17;fontStyle=1" vertex="1" parent="1">
          <mxGeometry x="388.6" y="410" width="60" height="30" as="geometry" />
        </mxCell>
        <mxCell id="5BVnTUnEMfs_GL1pfW84-28" value="CLIENST" style="text;html=1;align=center;verticalAlign=middle;whiteSpace=wrap;rounded=0;fontColor=#FF3333;fontSize=15;" vertex="1" parent="1">
          <mxGeometry x="410" y="100" width="60" height="30" as="geometry" />
        </mxCell>
        <mxCell id="5BVnTUnEMfs_GL1pfW84-30" value="&lt;h1 style=&quot;margin-top: 0px;&quot;&gt;&lt;span style=&quot;background-color: transparent; color: light-dark(rgb(0, 0, 0), rgb(255, 255, 255));&quot;&gt;REQUEST from middlewares&amp;nbsp; &amp;nbsp;to controllers&lt;/span&gt;&lt;/h1&gt;" style="text;html=1;whiteSpace=wrap;overflow=hidden;rounded=0;fontSize=10;" vertex="1" parent="1">
          <mxGeometry x="380" y="580" width="190" height="80" as="geometry" />
        </mxCell>
        <mxCell id="5BVnTUnEMfs_GL1pfW84-32" value="&lt;h1 style=&quot;margin-top: 0px;&quot;&gt;&lt;span style=&quot;background-color: transparent; color: light-dark(rgb(0, 0, 0), rgb(255, 255, 255));&quot;&gt;REQUEST from controllers to data base&lt;/span&gt;&lt;/h1&gt;" style="text;html=1;whiteSpace=wrap;overflow=hidden;rounded=0;fontSize=10;" vertex="1" parent="1">
          <mxGeometry x="360" y="870" width="190" height="80" as="geometry" />
        </mxCell>
        <mxCell id="5BVnTUnEMfs_GL1pfW84-33" value="&lt;h1 style=&quot;margin-top: 0px;&quot;&gt;&lt;span style=&quot;background-color: transparent; color: light-dark(rgb(0, 0, 0), rgb(255, 255, 255));&quot;&gt;RESPONSE from data base&amp;nbsp; to routers&lt;/span&gt;&lt;/h1&gt;" style="text;html=1;whiteSpace=wrap;overflow=hidden;rounded=0;fontSize=10;" vertex="1" parent="1">
          <mxGeometry x="620" y="840" width="190" height="80" as="geometry" />
        </mxCell>
        <mxCell id="5BVnTUnEMfs_GL1pfW84-34" value="&lt;h1 style=&quot;margin-top: 0px;&quot;&gt;&lt;span style=&quot;background-color: transparent; color: light-dark(rgb(0, 0, 0), rgb(255, 255, 255));&quot;&gt;RESPONSE from routers to clients&lt;/span&gt;&lt;/h1&gt;" style="text;html=1;whiteSpace=wrap;overflow=hidden;rounded=0;fontSize=10;" vertex="1" parent="1">
          <mxGeometry x="510" y="250" width="190" height="80" as="geometry" />
        </mxCell>
        <mxCell id="5BVnTUnEMfs_GL1pfW84-35" value="&lt;h1 style=&quot;margin-top: 0px;&quot;&gt;&lt;span style=&quot;background-color: transparent; color: light-dark(rgb(0, 0, 0), rgb(255, 255, 255));&quot;&gt;Front End REQUEST&lt;/span&gt;&lt;/h1&gt;" style="text;html=1;whiteSpace=wrap;overflow=hidden;rounded=0;" vertex="1" parent="1">
          <mxGeometry x="140" y="70" width="270" height="40" as="geometry" />
        </mxCell>
        <mxCell id="5BVnTUnEMfs_GL1pfW84-37" value="&lt;h1 style=&quot;margin-top: 0px;&quot;&gt;&lt;span style=&quot;background-color: transparent; color: light-dark(rgb(0, 0, 0), rgb(255, 255, 255));&quot;&gt;Front End RESPONS&lt;/span&gt;&lt;/h1&gt;" style="text;html=1;whiteSpace=wrap;overflow=hidden;rounded=0;" vertex="1" parent="1">
          <mxGeometry x="475" y="70" width="270" height="40" as="geometry" />
        </mxCell>
        <mxCell id="5BVnTUnEMfs_GL1pfW84-38" value="Middlewares" style="text;html=1;align=center;verticalAlign=middle;whiteSpace=wrap;rounded=0;fontColor=#FF0000;fontSize=18;" vertex="1" parent="1">
          <mxGeometry x="245" y="710" width="60" height="30" as="geometry" />
        </mxCell>
        <mxCell id="5BVnTUnEMfs_GL1pfW84-39" value="Controllers" style="text;html=1;align=center;verticalAlign=middle;whiteSpace=wrap;rounded=0;fontColor=#FF0000;fontSize=18;" vertex="1" parent="1">
          <mxGeometry x="580" y="690" width="80" height="30" as="geometry" />
        </mxCell>
        <mxCell id="5BVnTUnEMfs_GL1pfW84-40" value="Data Base" style="text;html=1;align=center;verticalAlign=middle;whiteSpace=wrap;rounded=0;fontColor=#FFFFFF;fontSize=18;" vertex="1" parent="1">
          <mxGeometry x="210" y="970" width="90" height="30" as="geometry" />
        </mxCell>
        <mxCell id="5BVnTUnEMfs_GL1pfW84-41" value="&lt;h1 style=&quot;margin-top: 0px;&quot;&gt;&lt;span style=&quot;background-color: transparent; color: light-dark(rgb(0, 0, 0), rgb(255, 255, 255));&quot;&gt;ADVERT WEB-APP API STRUCTURE&amp;nbsp;&lt;/span&gt;&lt;/h1&gt;" style="text;html=1;whiteSpace=wrap;overflow=hidden;rounded=0;fontSize=14;" vertex="1" parent="1">
          <mxGeometry x="225" y="10" width="500" height="40" as="geometry" />
        </mxCell>
      </root>
    </mxGraphModel>
  </diagram>
</mxfile>
